<svg width="24" height="24" viewBox="0 0 24 24" fill="none" xmlns="http://www.w3.org/2000/svg">
  <path fill-rule="evenodd" clip-rule="evenodd" d="M2.69922 3.6001C1.87079 3.6001 1.19922 4.27167 1.19922 5.1001V16.5001C1.19922 17.3285 1.87079 18.0001 2.69922 18.0001H13.1992V13.2501C13.1992 12.5597 13.7589 12.0001 14.4492 12.0001H18.5492C19.2396 12.0001 19.7992 12.5597 19.7992 13.2501V18.0001H21.2992C22.1276 18.0001 22.7992 17.3285 22.7992 16.5001V5.1001C22.7992 4.27167 22.1276 3.6001 21.2992 3.6001H2.69922Z" fill="black" fill-opacity="0.1"/>
  <path fill-rule="evenodd" clip-rule="evenodd" d="M21 2.3999C22.6569 2.3999 24 3.74305 24 5.3999V16.1999C24 17.8568 22.6569 19.1999 21 19.1999H20.9979V19.2457C20.9979 21.7066 18.9809 23.6966 16.4989 23.6966C14.0169 23.6966 12 21.7066 12 19.2457V19.1999H3C1.34315 19.1999 0 17.8568 0 16.1999V5.3999C0 3.74305 1.34315 2.3999 3 2.3999H21ZM21 17.3999H20.9979V13.4754C20.9979 11.995 19.7866 10.7999 18.2984 10.7999H16.4989H14.6995C13.2113 10.7999 12 11.995 12 13.4754V17.3999H3L2.86005 17.3918C2.26325 17.3225 1.8 16.8153 1.8 16.1999V5.3999L1.80807 5.25996C1.87739 4.66315 2.3846 4.1999 3 4.1999H21L21.1399 4.20798C21.7368 4.27729 22.2 4.7845 22.2 5.3999V16.1999L22.1919 16.3398C22.1226 16.9367 21.6154 17.3999 21 17.3999ZM15.5989 12.5999V15.2508L15.6071 15.373C15.6667 15.8123 16.0433 16.1508 16.4989 16.1508C16.996 16.1508 17.3989 15.7479 17.3989 15.2508V12.5999H18.2984C18.7978 12.5999 19.1979 12.9946 19.1979 13.4754V19.2456C19.1979 20.707 17.9922 21.8966 16.4989 21.8966C15.0057 21.8966 13.8 20.707 13.8 19.2456V13.4754C13.8 12.9946 14.2 12.5999 14.6995 12.5999H15.5989Z" fill="#353535"/>
</svg>
